<?xml version="1.0" encoding="utf-8"?>
<!-- Generator: Adobe Illustrator 16.0.0, SVG Export Plug-In . SVG Version: 6.00 Build 0)  -->
<!DOCTYPE svg PUBLIC "-//W3C//DTD SVG 1.1//EN" "http://www.w3.org/Graphics/SVG/1.1/DTD/svg11.dtd">
<svg version="1.1" id="Calque_1" xmlns="http://www.w3.org/2000/svg" xmlns:xlink="http://www.w3.org/1999/xlink" x="0px" y="0px"
	 width="799.35px" height="448.668px" viewBox="0 0 799.35 448.668" enable-background="new 0 0 799.35 448.668"
	 xml:space="preserve">
<path fill="#FFFFFF" d="M199.776,285.319c-10.935,0-21.29-1.263-30.388-2.61c-1.093-0.162-1.847-1.179-1.686-2.271
	c0.16-1.092,1.183-1.851,2.271-1.687c12.223,1.812,26.743,3.464,41.749,2.01c1.101-0.113,2.077,0.697,2.184,1.797
	s-0.697,2.077-1.797,2.184C207.942,285.146,203.82,285.319,199.776,285.319z"/>
<path fill="#FFFFFF" d="M224.42,190.422c-9.318,0-18.89-2.057-26.96-8.159c-8.674-6.559-14.011-17.018-14.278-27.979
	c-0.24-9.876,3.664-18.688,10.994-24.813c0.849-0.708,2.11-0.596,2.817,0.252c0.708,0.848,0.595,2.108-0.252,2.816
	c-6.375,5.327-9.771,13.016-9.561,21.647c0.237,9.753,4.982,19.056,12.691,24.885c19.338,14.622,49.117,3.528,58.903-0.117
	l0.437-0.162c4.474-1.664,10.317-3.935,17.084-6.563c25.329-9.841,63.604-24.712,84.49-28.744c1.089-0.209,2.134,0.501,2.343,1.585
	s-0.5,2.133-1.585,2.343c-20.529,3.963-58.604,18.756-83.799,28.545c-6.781,2.634-12.639,4.91-17.14,6.584l-0.435,0.162
	C253.818,185.07,239.448,190.421,224.42,190.422z"/>
<path fill="#FFFFFF" d="M279.666,152.667c-0.499,0-0.998-0.186-1.387-0.559c-1.871-1.8-3.682-3.708-5.598-5.729
	c-4.596-4.848-9.349-9.859-15.534-13.957c-0.921-0.609-1.173-1.851-0.563-2.771c0.608-0.921,1.852-1.173,2.771-0.563
	c6.564,4.35,11.698,9.764,16.229,14.54c1.883,1.986,3.662,3.862,5.467,5.599c0.796,0.766,0.821,2.03,0.055,2.828
	C280.715,152.461,280.191,152.667,279.666,152.667z"/>
<path fill="#FFFFFF" d="M389.665,141.449c-0.919,0-1.747-0.638-1.952-1.572c-0.236-1.079,0.447-2.146,1.525-2.382
	c16.61-3.64,31.298-2.374,31.916-2.317c1.101,0.099,1.911,1.07,1.813,2.17s-1.067,1.909-2.17,1.813
	c-0.146-0.014-14.719-1.26-30.702,2.242C389.951,141.434,389.806,141.449,389.665,141.449z"/>
<g>
	<path fill="#FFFFFF" d="M178.024,338.656c-2.119,0-4.217-0.184-6.296-0.553c-13.749-2.439-24.155-12.59-31.425-21.697
		c-4.766,5.444-10.018,9.481-15.687,11.549c-9.672,3.525-19.125,1.576-25.292-5.215c-5.654-6.226-7.261-15-3.995-21.832
		c3.511-7.349,9.997-12.028,17.792-12.838c8.598-0.895,17.129,3.021,22.825,10.471c0.917,1.199,1.944,2.672,3.134,4.377
		c0.413,0.593,0.843,1.208,1.29,1.847c17.042-26.046,26.159-74.005,20.395-97.809l6.804-1.647
		c6.403,26.442-3.259,77.766-22.825,105.436c6.688,8.679,16.008,18.304,28.208,20.468c9.104,1.615,18.929-1.214,29.209-8.411
		c14.284-9.999,23.244-27.362,25.229-48.892c2.295-24.896-5.402-51.761-18.72-65.325c-10.725-10.923-24.5-16.762-38.78-16.423
		c-11.478,0.268-22.347,4.612-28.364,11.34c-4.988,5.578-7.019,11.337-5.87,16.656c1.222,5.654,6.114,10.748,13.426,13.977
		l-2.827,6.403c-9.522-4.204-15.716-10.917-17.44-18.901c-1.144-5.3-0.772-13.558,7.495-22.801
		c7.375-8.244,19.868-13.355,33.419-13.671c16.229-0.366,31.844,6.199,43.938,18.519c14.889,15.165,23.205,43.646,20.694,70.872
		c-2.177,23.611-12.187,42.783-28.185,53.981C196.557,335.266,187.115,338.656,178.024,338.656z M115.531,294.945
		c-0.562,0-1.123,0.029-1.687,0.088c-5.395,0.561-9.727,3.719-12.2,8.894c-2.02,4.228-0.843,10.028,2.861,14.107
		c4.25,4.681,10.705,5.899,17.712,3.346c4.933-1.8,9.561-5.545,13.793-10.664c-0.975-1.357-1.866-2.636-2.674-3.793
		c-1.142-1.639-2.127-3.052-2.951-4.13C126.566,297.796,121.111,294.945,115.531,294.945z"/>
	<path fill="#FFFFFF" d="M277.358,260.213c-1.497,0.001-2.991-0.212-4.462-0.645c-6.259-1.842-10.979-7.257-12.95-14.856
		c-3.019-11.641-1.421-33.139,23.716-39.876c0.025-0.006,0.052-0.013,0.077-0.02c1.759-0.428,3.557,0.556,4.143,2.271
		c0.032,0.096,3.275,9.563,7.721,18.69c7.953,16.328,12.047,15.979,12.082,15.957c7.238-1.009,6.134-22.432,5.604-32.728
		c-0.501-9.71-0.67-12.98,2.313-14.473c1.007-0.503,2.159-0.571,3.244-0.193c2.802,0.979,4.6,4.643,8.754,13.573
		c2.38,5.116,5.077,10.915,7.854,15.302c3.104,4.904,4.878,5.755,5.436,5.899c3.117-2.466,8.21-21.03,10.83-44.772
		c-0.889-0.134-1.314-0.379-1.63-0.561c-1.829-1.054-2.685-3.158-2.126-5.238c0.707-2.635,3.418-4.545,6.448-4.545
		c0.005,0,0.009,0,0.014,0c1.28,0.002,2.447,0.519,3.284,1.451c0.35,0.39,0.619,0.817,0.822,1.286
		c4.77-0.984,11.605-2.79,17.561-4.588c0.943-0.285,1.966-0.159,2.813,0.35c3.846,2.308,3.191,8.586,2.007,19.986
		c-0.974,9.351-2.783,26.756,2.119,27.75c9.367,1.896,18.146-10.718,18.233-10.846l5.809,3.907
		c-0.458,0.682-11.394,16.641-25.433,13.8c-11.133-2.259-9.305-19.831-7.691-35.336c0.411-3.952,0.938-9.009,0.885-11.937
		c-7.353,2.146-12.446,3.354-16.017,3.991c-0.014,0.135-0.027,0.271-0.043,0.411c-1.212,11.296-3.253,23.295-5.459,32.096
		c-3.378,13.473-6.858,19.394-11.642,19.799c-7.728,0.669-13.35-10.051-20.419-25.254c-0.309-0.66-0.634-1.361-0.97-2.075
		c0.783,15.184,1.916,37.987-11.634,39.877c-5.022,0.7-10.002-3.307-15.44-12.505c1.381,8.675,1.186,14.565-3.458,18.847
		C286.05,258.42,281.703,260.213,277.358,260.213z M281.746,212.799c-20.172,7.712-15.644,27.772-15.025,30.155
		c1.338,5.16,4.309,8.77,8.15,9.898c3.367,0.992,6.967-0.07,10.134-2.989c3.159-2.912,2.146-8.814-0.445-21.889
		C283.675,223.504,282.692,218.547,281.746,212.799z"/>
	<path fill="#FFFFFF" d="M412.465,214.844c-4.97,0-9.46-2.114-13.357-6.29c-5.896-6.316-6.872-15.857-2.613-25.523
		c4.023-9.131,13.21-18.292,24.708-18.292c0.073,0,0.146,0,0.221,0.001l-0.07,7c-0.049,0-0.097-0.001-0.146-0.001
		c-8.305,0-15.303,7.296-18.308,14.114c-3.093,7.021-2.598,13.722,1.325,17.925c2.635,2.823,5.423,4.158,8.547,4.062
		c7.172-0.205,13.896-7.638,15.786-9.911l5.383,4.476c-3.03,3.644-11.14,12.151-20.969,12.433
		C412.803,214.842,412.633,214.844,412.465,214.844z"/>
	<path fill="#FFFFFF" d="M437.768,216.747c-23.53-31.84-10.897-80.04-0.931-101.079l6.325,2.997
		c-7.517,15.865-22.126,63.665,0.233,93.921L437.768,216.747z"/>
	<path fill="#FFFFFF" d="M458.585,256.912c-2.248,0-4.522-0.419-6.714-1.283c-5.862-2.313-9.673-7.325-9.706-12.772
		c-0.024-4.292,1.643-8.172,4.821-11.221c4.246-4.07,10.949-6.302,17.973-5.965c3.442,0.166,7.305,1.551,11.401,3.293
		c5.633-15.353,8.634-35.738,8.306-51.725c-0.048-2.307-0.158-4.79-0.276-7.418c-0.146-3.276-0.302-6.727-0.347-10.225
		c-12.653-2.409-26.486-7.18-39.964-14.027l3.173-6.24c12.523,6.365,25.276,10.859,36.885,13.22
		c0.445-10.022,2.444-19.691,8.774-25.903c4.956-4.865,12.007-7.047,20.978-6.472c12.157,0.774,20.107,6.615,21.268,15.624
		c1.242,9.646-6.127,19.67-17.141,23.317c-7.27,2.407-16.578,2.879-26.952,1.59c0.06,3.003,0.192,5.976,0.319,8.802
		c0.12,2.673,0.232,5.196,0.281,7.589c0.353,17.105-2.822,38.347-8.921,54.683c7.634,3.359,15.909,6.56,22.22,4.032
		c16.174-6.487,19.306-23.158,16.844-36.597l6.885-1.262c2.961,16.159-1.033,36.296-21.123,44.354
		c-8.873,3.561-18.643-0.16-27.516-4.064c-2.437,5.233-5.227,9.698-8.344,12.996C468.212,254.937,463.461,256.912,458.585,256.912z
		 M463.584,232.637c-4.674,0-9.105,1.512-11.753,4.05c-1.782,1.71-2.681,3.771-2.665,6.125c0.016,2.571,2.086,5.047,5.273,6.305
		c3.396,1.339,8.378,1.336,12.183-2.688c2.607-2.76,4.971-6.534,7.063-10.998c-3.496-1.491-6.673-2.653-9.063-2.77
		C464.277,232.646,463.929,232.637,463.584,232.637z M491.096,153.726c9.604,1.279,18.144,0.919,24.721-1.257
		c8.988-2.977,13.096-10.351,12.397-15.778c-0.709-5.504-6.094-8.979-14.771-9.532c-6.998-0.447-12.103,1.021-15.629,4.481
		C492.928,136.436,491.404,144.819,491.096,153.726z"/>
	<path fill="#FFFFFF" d="M640.568,268.262c-19.223,0.001-23.23-11.7-24.06-16.908c-0.457-2.867-0.354-5.899,0.192-8.866
		c-2.856-0.98-5.532-2.094-7.856-3.157c-1.694,7.098-7.12,12.447-12.719,14.418c-6.763,2.38-13.267,0.061-16.968-6.06
		c-2.97-4.908-4.281-10.67-4.188-17.661c-9.67,6.239-18.553,10.521-23.26,10.383c-2.799-0.103-4.452-1.357-5.35-2.393
		c-2.602-3.005-2.292-7.64-1.624-13.976c-5.001,6.066-11.605,11.198-18.25,13.711c-6.113,2.313-11.533,2.088-15.669-0.647
		l3.863-5.838c2.753,1.822,6.593,0.974,9.33-0.063c9.369-3.543,19.355-14.23,21.808-23.339c0.451-1.678,2.069-2.771,3.793-2.564
		c1.727,0.204,3.039,1.646,3.086,3.383c0.146,5.432-0.389,10.396-0.857,14.774c-0.397,3.694-0.938,8.729-0.228,9.914
		c0.063,0.016,0.177,0.034,0.354,0.04c0.033,0.002,0.067,0.002,0.104,0.002c3.054,0,12.495-4.598,23.653-12.257
		c1.627-11.195,5.805-25.074,11.852-42.656c8.604-25.013,19.614-25.931,23.959-25.165c7.508,1.327,12.609,9.869,12.406,20.772
		c-0.22,11.866-11.947,25.412-21.746,34.685c-5.754,5.444-12.81,11.18-19.896,16.245c-0.842,8.045-0.021,14.279,2.851,19.024
		c2.658,4.394,6.563,3.814,8.654,3.08c4.094-1.441,7.926-5.771,8.502-11.114c-1.063-0.59-1.717-0.984-1.856-1.068
		c-0.381-0.231-0.715-0.535-0.981-0.892c-3.329-4.441-2.178-6.788-0.626-7.974c2.505-1.913,6.113-0.34,9.654,4.205
		c0.322,0.415,0.548,0.896,0.658,1.408c2.582,1.284,5.941,2.811,9.577,4.084c2.548-5.941,6.784-10.733,11.529-12.01
		c5.288-1.422,10.432-0.146,13.761,3.404c2.747,2.933,3.711,6.938,2.516,10.451c-0.778,2.291-3.153,6.309-10.304,7.479
		c-4.03,0.66-8.446,0.251-12.758-0.704c-0.309,1.938-0.358,3.922-0.053,5.837c1.563,9.817,11.458,11.375,19.477,10.945l0.371,6.99
		C642.337,268.239,641.436,268.262,640.568,268.262z M625.576,237.738c3.308,0.688,6.595,0.954,9.524,0.475
		c2.589-0.424,4.341-1.452,4.808-2.823c0.361-1.063-0.021-2.369-0.998-3.412c-0.733-0.785-2.872-2.493-6.835-1.431
		C629.924,231.125,627.384,233.962,625.576,237.738z M609.582,160.17c-3.986,0-10.122,5.303-15.389,20.61
		c-4.679,13.605-8.228,24.965-10.263,34.402c4.482-3.457,9.054-7.31,13.451-11.471c12.477-11.807,19.423-22.365,19.56-29.729
		c0.15-8.144-3.302-13.161-6.627-13.749C610.081,160.191,609.836,160.17,609.582,160.17z"/>
	<path fill="#FFFFFF" d="M690.258,307.08c-2.924-3.241-2.721-11.159-0.697-19.561c-5.096,4.287-10.695,6.997-15.58,3.793
		c-5.081-3.334-4.275-9.435-1.635-15.818c-4.456,3.011-8.979,5.196-12.149,4.756c-1.978-0.274-3.553-1.456-4.321-3.238
		c-0.342-0.795-0.528-1.68-0.579-2.646c-3.799,0.872-8.748-0.245-12.202-4.334c-4.535-5.371-3.515-13.428,2.483-19.594
		c5.164-5.313,13.776-8.556,21.054-3.771c0.949-1.488,2.88-2.046,4.485-1.261c1.684,0.821,2.42,2.822,1.674,4.54
		c-0.472,1.084-1.37,2.745-2.511,4.849c-1.992,3.678-7.65,14.123-8.043,18.322c4.241-1.364,15.006-9.473,19.374-14.837
		c1.129-1.386,3.121-1.7,4.621-0.725c1.499,0.974,2.023,2.922,1.215,4.517c-0.713,1.406-1.679,3.071-2.798,4.999
		c-2.378,4.096-9.613,16.561-6.828,18.388c1.549,1.017,5.654-0.403,16.474-12.922c0.822-0.952,1.535-1.774,2.106-2.396
		c1.198-1.304,3.182-1.509,4.622-0.474c1.438,1.036,1.876,2.982,1.019,4.534c-6.574,11.896-7.978,25.973-6.529,28.259
		L690.258,307.08z M658.851,251.385c-3.014,0-6.088,1.703-8.256,3.934c-2.868,2.948-4.646,7.244-2.154,10.196
		c1.729,2.045,4.162,2.379,5.474,1.98c1.47-1.497,5.409-7.89,9.285-14.688C661.845,251.81,660.355,251.385,658.851,251.385z"/>
	<path fill="#FFFFFF" d="M249.1,279.795l-1.616-6.811c10.629-2.521,19.128-11.449,20.94-16.656l6.611,2.301
		C272.738,265.229,262.907,276.52,249.1,279.795z"/>
</g>
<path fill="#FFFFFF" d="M151,176c-0.826,0-1.599-0.515-1.888-1.338c-5.967-16.996-5.343-36.184,1.714-52.642
	c0.436-1.016,1.61-1.483,2.626-1.05c1.015,0.436,1.484,1.61,1.05,2.626c-6.667,15.549-7.255,33.679-1.616,49.74
	c0.366,1.042-0.183,2.185-1.225,2.551C151.443,175.964,151.22,176,151,176z"/>
<path fill="#FFFFFF" d="M177.771,96.151c-0.687,0-1.354-0.354-1.728-0.99c-0.56-0.953-0.238-2.178,0.715-2.736
	c8.623-5.051,18.322-7.751,29.653-8.257c12.441-0.556,25.502,1.818,38.813,7.055c1.028,0.403,1.534,1.564,1.129,2.593
	s-1.565,1.531-2.593,1.129c-12.785-5.029-25.291-7.316-37.17-6.78c-10.666,0.477-19.762,2.998-27.811,7.712
	C178.462,96.063,178.114,96.151,177.771,96.151z"/>
<path fill="#FFFFFF" d="M308.667,141.391c-0.539,0-1.076-0.217-1.471-0.645c-6.406-6.941-19.722-20.294-36.905-31.724
	c-0.92-0.611-1.169-1.854-0.559-2.772c0.611-0.919,1.853-1.17,2.772-0.558c17.532,11.661,31.102,25.268,37.63,32.341
	c0.749,0.813,0.698,2.077-0.113,2.826C309.639,141.215,309.152,141.391,308.667,141.391z"/>
<path fill="#FFFFFF" d="M171.328,177.112c-0.637,0-1.263-0.303-1.649-0.866c-5.903-8.58-8.345-22.889-5.807-34.023
	c0.246-1.077,1.319-1.75,2.395-1.507c1.077,0.246,1.751,1.318,1.506,2.396c-2.274,9.979-0.039,23.25,5.202,30.868
	c0.626,0.91,0.396,2.154-0.514,2.782C172.113,176.998,171.718,177.112,171.328,177.112z"/>
<path fill="#FFFFFF" d="M295.25,147.833c-0.542,0-1.083-0.219-1.478-0.65c-5.753-6.297-13.726-14.68-13.806-14.763
	c-0.762-0.8-0.73-2.065,0.07-2.828s2.065-0.729,2.828,0.07c0.079,0.084,8.08,8.495,13.86,14.822
	c0.745,0.814,0.688,2.081-0.127,2.826C296.215,147.661,295.732,147.833,295.25,147.833z"/>
<path fill="#FFFFFF" d="M133.499,272.167c-0.263,0-0.528-0.052-0.784-0.161c-13.761-5.872-23.664-17.729-27.885-33.389
	c-5.371-19.925-0.82-42.876,11.877-59.896c0.661-0.886,1.914-1.067,2.799-0.407s1.068,1.914,0.407,2.799
	c-11.98,16.061-16.28,37.697-11.222,56.464c3.896,14.449,12.984,25.37,25.594,30.75c1.016,0.434,1.487,1.608,1.054,2.625
	C135.015,271.711,134.276,272.167,133.499,272.167z"/>
<path fill="#FFFFFF" d="M90.165,295.917c-0.379,0-0.763-0.106-1.102-0.332c-13.629-9.013-22.965-23.999-25.614-41.115
	c-3.036-19.615,3.146-40.146,17.411-57.809c0.694-0.86,1.953-0.995,2.813-0.3c0.859,0.694,0.994,1.954,0.3,2.813
	c-13.548,16.776-19.433,36.196-16.571,54.684c2.479,16.007,11.179,30,23.868,38.393c0.921,0.609,1.174,1.851,0.565,2.771
	C91.45,295.601,90.813,295.917,90.165,295.917z"/>
<path fill="#FFFFFF" d="M124.405,313.441c-0.077,0-0.156-0.004-0.235-0.014c-5.271-0.621-10.598-2.229-14.998-4.527
	c-0.979-0.511-1.358-1.719-0.847-2.698c0.512-0.979,1.719-1.356,2.698-0.847c3.98,2.078,8.815,3.534,13.614,4.1
	c1.097,0.13,1.882,1.123,1.752,2.222C126.269,312.693,125.405,313.441,124.405,313.441z"/>
<path fill="#FFFFFF" d="M172.205,314.046c-3.896,0-8.066-0.104-12.708-0.305c-1.104-0.047-1.959-0.979-1.912-2.084
	c0.047-1.103,0.979-1.95,2.084-1.912c16.424,0.707,26.875,0.201,39.94-1.929c1.091-0.186,2.118,0.563,2.297,1.652
	c0.178,1.089-0.563,2.117-1.652,2.295C190.597,313.339,182.347,314.046,172.205,314.046z"/>
<path fill="#FFFFFF" d="M246.918,305.667c-0.747,0-1.464-0.42-1.808-1.14c-0.476-0.997-0.052-2.19,0.945-2.666
	c59.531-28.375,121.723-47.398,179.851-55.012c1.088-0.139,2.101,0.628,2.243,1.724c0.144,1.096-0.629,2.1-1.724,2.243
	c-57.717,7.559-119.492,26.459-178.649,54.656C247.5,305.605,247.207,305.667,246.918,305.667z"/>
<path display="none" fill="none" stroke="#000000" stroke-width="4" stroke-linecap="round" stroke-linejoin="round" stroke-miterlimit="10" d="
	M437.104,244.177c2.536-0.242,7.269-0.26,9.75,0.234"/>
<path fill="#FFFFFF" d="M573.798,301.099c-0.707,0-1.404-0.109-2.068-0.337c-2.612-0.896-4.331-3.4-4.717-6.875
	c-0.122-1.099,0.669-2.088,1.767-2.208c1.096-0.128,2.086,0.668,2.208,1.767c0.212,1.899,0.937,3.154,2.038,3.532
	c1.136,0.389,2.602-0.118,3.735-1.287c1.992-2.053,2.379-5.412,1.033-8.987c-4.332-11.515-16.702-17.019-29.427-21.252
	c-13.614-4.529-40.448-7.752-56.481-9.678c-2.775-0.334-5.199-0.625-7.141-0.874c-1.096-0.14-1.869-1.144-1.729-2.237
	c0.14-1.097,1.146-1.88,2.237-1.729c1.933,0.247,4.347,0.537,7.108,0.869c16.184,1.942,43.27,5.196,57.27,9.854
	c13.662,4.545,26.982,10.556,31.905,23.639c1.904,5.063,1.191,9.988-1.905,13.182C577.989,300.169,575.852,301.099,573.798,301.099z
	"/>
<path fill="#FFFFFF" d="M605.696,316.137c-1.729,0.001-3.451-0.444-4.97-1.342c-3.441-2.031-5.191-5.902-4.803-10.622
	c0.091-1.101,1.052-1.927,2.156-1.828c1.102,0.091,1.921,1.057,1.829,2.156c-0.262,3.179,0.75,5.609,2.851,6.85
	c1.919,1.134,4.402,1.043,6.325-0.234c2.479-1.646,3.534-4.818,2.977-8.931c-2.573-18.931-23.268-34.527-41.432-39.594
	c-1.064-0.297-1.688-1.399-1.391-2.464c0.297-1.063,1.401-1.686,2.464-1.39c19.395,5.408,41.519,22.284,44.32,42.907
	c0.766,5.632-0.957,10.298-4.727,12.802C609.607,315.572,607.646,316.137,605.696,316.137z"/>
<path fill="#FFFFFF" d="M262.668,326.668c-0.646,0-1.277-0.312-1.663-0.888c-0.615-0.917-0.37-2.159,0.547-2.773
	c40.327-27.036,84.021-44.91,141.672-57.955c1.076-0.248,2.147,0.432,2.392,1.509s-0.432,2.147-1.509,2.393
	c-57.148,12.933-100.428,30.627-140.328,57.376C263.438,326.557,263.051,326.668,262.668,326.668z"/>
<path fill="#FFFFFF" d="M551.827,191.917c-3.309,0-6-2.69-6-6c0-3.309,2.691-6,6-6c3.31,0,6,2.691,6,6
	C557.827,189.226,555.136,191.917,551.827,191.917z M551.827,183.917c-1.103,0-2,0.897-2,2c0,1.104,0.897,2,2,2c1.104,0,2-0.896,2-2
	C553.827,184.814,552.93,183.917,551.827,183.917z"/>
<g>
	<path fill="#FFFFFF" d="M206.901,105.608v-1.742c0-2.233-0.759-3.216-2.501-3.216h-2.366v8.262h1.92
		C205.785,108.913,206.901,108.109,206.901,105.608z"/>
	<path fill="#FFFFFF" d="M204.221,113.379h-2.188v9.604h2.813c1.652,0,2.546-0.759,2.546-3.082v-2.726
		C207.393,114.273,206.455,113.379,204.221,113.379z"/>
	<path fill="#FFFFFF" d="M150.458,91.406v41.302h122.709V91.406H150.458z M174.738,127.448h-6.521l-1.742-16.659h-0.089
		l-1.742,16.659H157.9l-3.483-31.264h4.778l2.591,24.653h0.089l2.322-24.653h4.734l2.412,24.833h0.089l2.501-24.833h4.288
		L174.738,127.448z M194.08,100.651h-8.486v8.709h6.744v4.466h-6.744v9.156h8.486v4.466h-13.398V96.185h13.398V100.651
		L194.08,100.651z M212.305,120.034c0,4.824-2.546,7.414-7.458,7.414h-7.727V96.185h7.414c5.091,0,7.279,2.367,7.279,7.189v1.117
		c0,3.216-0.981,5.226-3.171,6.253v0.089c2.635,1.027,3.662,3.351,3.662,6.654V120.034L212.305,120.034z M221.821,127.806
		c-4.823,0-7.324-2.858-7.324-7.861v-1.92h4.645v2.232c0,2.233,0.982,3.037,2.545,3.037c1.563,0,2.546-0.804,2.546-3.037
		c0-2.277-0.981-3.975-4.197-6.788c-4.109-3.618-5.404-6.208-5.404-9.781c0-5.002,2.457-7.861,7.235-7.861
		c4.777,0,7.234,2.858,7.234,7.861v0.981h-4.645v-1.295c0-2.232-0.894-3.082-2.456-3.082c-1.563,0-2.457,0.85-2.457,3.082
		c0,2.278,0.981,3.976,4.198,6.789c4.108,3.618,5.403,6.208,5.403,9.781C229.146,124.947,226.644,127.806,221.821,127.806z
		 M236.875,127.448h-4.913V96.185h4.913V127.448z M254.204,100.651h-5.137v26.797h-4.913v-26.797h-5.136v-4.466h15.186V100.651z
		 M269.749,100.651h-8.486v8.709h6.744v4.466h-6.744v9.156h8.486v4.466H256.35V96.185h13.398L269.749,100.651L269.749,100.651z"/>
</g>
<g>
	<path fill="#FFFFFF" d="M216.596,149.35c0-4.032,2.124-6.335,6.011-6.335c3.889,0,6.012,2.304,6.012,6.335v13.102
		c0,4.032-2.124,6.335-6.012,6.335c-3.887,0-6.011-2.304-6.011-6.335V149.35z M220.555,162.704c0,1.8,0.792,2.484,2.052,2.484
		c1.261,0,2.053-0.685,2.053-2.484v-13.605c0-1.801-0.792-2.484-2.053-2.484c-1.26,0-2.052,0.684-2.052,2.484V162.704z"/>
	<path fill="#FFFFFF" d="M235.135,154.497h5.111v3.601h-5.111V168.5h-3.959v-25.196h10.475v3.6h-6.515L235.135,154.497
		L235.135,154.497z"/>
</g>
<path fill="#FFFFFF" d="M375.973,148.451c-3.309,0-6-2.69-6-6c0-3.309,2.691-6,6-6s6,2.691,6,6
	C381.973,145.76,379.282,148.451,375.973,148.451z M375.973,140.451c-1.103,0-2,0.897-2,2c0,1.104,0.897,2,2,2c1.104,0,2-0.896,2-2
	C377.973,141.348,377.076,140.451,375.973,140.451z"/>
<path fill="#FFFFFF" d="M715.666,247.332c-0.471,0-0.942-0.165-1.322-0.501c-37.749-33.324-69.75-46.005-70.069-46.129
	c-1.028-0.401-1.538-1.56-1.138-2.589c0.398-1.028,1.557-1.539,2.588-1.139c0.325,0.126,32.942,13.026,71.266,46.858
	c0.828,0.73,0.907,1.994,0.177,2.822C716.771,247.103,716.219,247.332,715.666,247.332z"/>
<path fill="#FFFFFF" d="M687.997,202.833c-0.382,0-0.768-0.108-1.107-0.337c-23.287-15.552-43.191-21.858-43.39-21.921
	c-1.056-0.329-1.644-1.45-1.314-2.504c0.328-1.055,1.448-1.643,2.504-1.314c0.831,0.26,20.622,6.52,44.421,22.414
	c0.919,0.613,1.166,1.855,0.553,2.774C689.277,202.521,688.643,202.833,687.997,202.833z"/>
<g>
	<path fill="#FFFFFF" d="M393.84,316.649v1.075c0,3.096-0.946,5.031-3.054,6.02v0.086c2.536,0.989,3.525,3.227,3.525,6.407v2.451
		c0,4.644-2.451,7.138-7.181,7.138h-7.439v-30.1h7.139C391.733,309.726,393.84,312.006,393.84,316.649z M384.423,314.026v7.955
		h1.849c1.764,0,2.838-0.774,2.838-3.182v-1.679c0-2.148-0.729-3.096-2.407-3.096L384.423,314.026L384.423,314.026z
		 M384.423,326.281v9.245h2.709c1.591,0,2.45-0.73,2.45-2.967v-2.623c0-2.795-0.902-3.655-3.054-3.655H384.423z"/>
	<path fill="#FFFFFF" d="M397.151,309.726h4.73v30.1h-4.73V309.726z"/>
	<path fill="#FFFFFF" d="M410.05,322.411h6.491v4.301h-6.491v8.814h8.17v4.3h-12.9v-30.1h12.9v4.3h-8.17V322.411z"/>
	<path fill="#FFFFFF" d="M425.444,318.025h-0.086v21.801h-4.257v-30.1h5.935l4.772,18.017h0.086v-18.017h4.214v30.1h-4.857
		L425.444,318.025z"/>
	<path fill="#FFFFFF" d="M446.599,334.279h0.086l3.569-24.553h4.343l-4.645,30.1h-7.052l-4.645-30.1h4.772L446.599,334.279z"/>
	<path fill="#FFFFFF" d="M461.52,322.411h6.492v4.301h-6.492v8.814h8.17v4.3h-12.9v-30.1h12.9v4.3h-8.17V322.411z"/>
	<path fill="#FFFFFF" d="M476.913,318.025h-0.086v21.801h-4.257v-30.1h5.936l4.771,18.017h0.086v-18.017h4.214v30.1h-4.857
		L476.913,318.025z"/>
	<path fill="#FFFFFF" d="M495.49,309.726v23.22c0,2.15,0.945,2.924,2.45,2.924s2.451-0.772,2.451-2.924v-23.22h4.472v22.919
		c0,4.815-2.407,7.567-7.052,7.567s-7.052-2.752-7.052-7.567v-22.919H495.49z"/>
	<path fill="#FFFFFF" d="M512.819,322.411h6.492v4.301h-6.492v8.814h8.17v4.3h-12.899v-30.1h12.899v4.3h-8.17V322.411z"/>
</g>
</svg>
